<?xml version="1.0" encoding="UTF-8"?>
<svg id="Layer_1" data-name="Layer 1" xmlns="http://www.w3.org/2000/svg" viewBox="0 0 310 140">
  <defs>
    <style>
      .cls-1 {
        fill: #38220f;
        stroke-width: 0px;
      }
    </style>
  </defs>
  <g>
    <g>
      <path class="cls-1" d="m180.41,30.56c-1.21-.02-7.66,15.19-10.53,17.94-1.23,1.18-6.57,4.71-11.97,8.68,3.99-.72,8.05,4.71,4.48,8.57-2.19,2.36-5.1,3.6-8.24,4.06-1.63.24-3.3.38-4.95.35-.82-.02-2.27.06-2.97-.27-.28-.05-.56-.1-.84-.14-.06.06-.13.12-.2.18.03.32.14.61.37.85,10.28,9.96,25.28-.26,31.53-7.09,6.26-6.83,14.62-31.28,3.32-33.13Z"/>
      <path class="cls-1" d="m178.24,28.97c-11.4-12.34-27.88,3.06-34.05,11.04,2.32,2.01,4.32,5.12,4.79,8.3.71-.45,1.59-.72,2.64-.72,2.28,0,3.75,1.26,4.42,2.88,8.04-5.7,25.15-16.72,22.2-21.5Z"/>
    </g>
    <g>
      <path class="cls-1" d="m130.8,60.87c11.19,11.59,25.79,19.15,28.36,11.58.53-1.38-7.92-11.22-9.45-13.58s-7.99-18.98-10.74-21.67c-1.12-1.09-4.62-4.94-8.69-4.7-5.96.35-10.67,16.78.52,28.37Z"/>
      <path class="cls-1" d="m133.77,29.25c-.27,1.54,5.17,4.29,10.17,11.76,8.99,11.58,12.74,29.51,18.96,30.31,5.62-2.49,13.47-14.82,2.31-30.62-11.15-15.79-27.96-19.39-31.44-11.45Z"/>
    </g>
  </g>
  <g>
    <path class="cls-1" d="m40.59,103.34c0,1.87-.63,3.5-1.89,4.88-1.26,1.38-3.23,2.07-5.92,2.07h-12.31v-4.1h2.52v-15.19h-2.52v-4.1h12.17c2.14,0,3.86.5,5.17,1.49,1.31,1,1.96,2.32,1.96,3.98,0,1.22-.37,2.29-1.12,3.2-.74.91-1.79,1.48-3.13,1.69v.14c1.68.24,2.95.9,3.8,1.98.85,1.08,1.28,2.4,1.28,3.96Zm-6.01-9.72c0-1.06-.32-1.76-.95-2.11-.64-.35-1.39-.52-2.25-.52h-3.56v5.47h3.2c1.37,0,2.3-.28,2.81-.83.5-.55.76-1.22.76-2.02Zm.83,9.54c0-1.97-1.19-2.95-3.56-2.95h-4.03v5.98h3.71c2.59,0,3.89-1.01,3.89-3.02Z"/>
    <path class="cls-1" d="m52.76,93.83c.46,0,.97.07,1.53.2.56.13,1.12.37,1.67.7l.72,5.69-3.53.4-.61-2.77c-.48-.29-.9-.43-1.26-.43-.53,0-.99.2-1.39.61s-.59,1.01-.59,1.8v6.77h2.88v3.49h-9.68v-3.49h2.16v-9.22h-2.34v-3.53h6.62v3.1c.26-.94.69-1.72,1.28-2.36.59-.64,1.43-.95,2.54-.95Z"/>
    <path class="cls-1" d="m74,105.17c-.12,1.44-.83,2.71-2.12,3.82-1.3,1.1-3.11,1.66-5.44,1.66s-4.42-.68-5.99-2.05c-1.57-1.37-2.36-3.41-2.36-6.12,0-2.5.71-4.58,2.14-6.25,1.43-1.67,3.43-2.5,5.99-2.5,2.26,0,4.09.65,5.49,1.94s2.12,3,2.14,5.11c0,.79-.08,1.57-.25,2.34h-10.66c.26,2.57,1.54,3.85,3.82,3.85,1.25,0,2.09-.3,2.54-.9.44-.6.71-1.14.81-1.62l3.89.72Zm-4.93-4.75c.1-.82-.08-1.58-.52-2.3s-1.22-1.08-2.32-1.08c-.96,0-1.7.31-2.23.94-.53.62-.86,1.44-1.01,2.45h6.08Z"/>
    <path class="cls-1" d="m101.4,97.54h-1.48l-4.39,12.74h-3.46l-4.21-9.72h-.22l-3.82,9.72h-3.28l-4.5-12.74h-1.48v-3.49h8.64v3.49h-2.23l1.98,6.34h.22l3.82-9.83h2.77l4.43,9.68h.22l1.33-6.19h-2.12v-3.49h7.78v3.49Z"/>
    <path class="cls-1" d="m116.91,105.32c0,1.8-.71,3.14-2.14,4.01-1.43.88-3.28,1.31-5.56,1.31-1.18,0-2.36-.13-3.55-.38-1.19-.25-2.32-.65-3.4-1.21l.65-4.54,3.6.4v2.02c.43.14.89.23,1.37.27.48.04.84.05,1.08.05.89,0,1.66-.14,2.3-.43.65-.29.97-.72.97-1.3,0-.7-.49-1.15-1.48-1.37s-2.12-.43-3.42-.65c-1.3-.22-2.44-.66-3.42-1.33-.98-.67-1.48-1.81-1.48-3.42,0-1.99.77-3.33,2.32-4.01,1.55-.68,3.15-1.03,4.81-1.03,2.16,0,4.19.49,6.08,1.48l.4,4.14-3.6.4-.29-2.27c-.79-.26-1.64-.4-2.56-.4-.6,0-1.11.13-1.53.38-.42.25-.63.64-.63,1.17,0,.7.47,1.16,1.42,1.39.95.23,2.05.45,3.31.67s2.36.65,3.31,1.31c.95.66,1.42,1.77,1.42,3.33Z"/>
    <path class="cls-1" d="m126.96,95.2c1.42-.58,2.6-.97,3.55-1.17.95-.2,2.08-.31,3.4-.31,1.75,0,3.26.46,4.54,1.37,1.27.91,1.91,2.29,1.91,4.14v7.06c0,.84.37,1.26,1.12,1.26.22,0,.44-.04.68-.11l.04,2.45c-.94.5-1.91.76-2.92.76-2.14,0-3.32-1.07-3.56-3.2v-.04c-.46.82-1.11,1.56-1.96,2.23-.85.67-1.94,1.01-3.26,1.01-1.18,0-2.3-.35-3.38-1.04-1.08-.7-1.62-1.9-1.62-3.6,0-1.99.8-3.31,2.39-3.96,1.6-.65,3.32-.97,5.17-.97,1.03,0,1.92.05,2.66.14v-.54c0-.84-.11-1.66-.34-2.45-.23-.79-1-1.19-2.32-1.19-.48,0-.92.03-1.31.09-.4.06-.79.19-1.17.38l-.61,2.3-3.71-.4.72-4.21Zm8.75,8.46v-.22c-.38-.05-.77-.1-1.17-.14-.4-.05-.79-.07-1.17-.07-.82,0-1.54.15-2.16.45-.62.3-.94.89-.94,1.78,0,.53.14.97.43,1.33.29.36.78.54,1.48.54.82,0,1.58-.29,2.29-.88s1.12-1.52,1.24-2.79Z"/>
    <path class="cls-1" d="m163.64,110.28h-8.96v-3.49h2.16v-5.65c0-1.39-.23-2.39-.7-2.99s-1.16-.9-2.07-.9c-1.1,0-1.96.34-2.56,1.03-.6.68-.91,1.58-.94,2.68v5.83h2.16v3.49h-8.96v-3.49h2.16v-9.22h-2.34v-3.53h6.98v2.48c1.08-1.87,2.82-2.81,5.22-2.81,1.54,0,2.87.46,4,1.37,1.13.91,1.69,2.33,1.69,4.25v7.45h2.16v3.49Z"/>
    <path class="cls-1" d="m184.09,110.28h-6.8v-3.02c-.46.94-1.13,1.73-2.02,2.39-.89.66-2.06.99-3.53.99-2.14,0-3.82-.73-5.04-2.2s-1.84-3.46-1.84-5.98.6-4.49,1.8-6.19,3.01-2.56,5.44-2.56c1.32,0,2.4.26,3.24.79.84.53,1.49,1.2,1.94,2.02v-7.49h-3.24v-3.53h7.88v21.28h2.16v3.49Zm-6.8-8.21v-.4c0-1.34-.35-2.39-1.06-3.15-.71-.76-1.59-1.13-2.65-1.13s-1.94.38-2.72,1.15c-.78.77-1.17,1.98-1.17,3.64,0,1.56.36,2.75,1.08,3.56.72.82,1.57,1.22,2.56,1.22,1.22,0,2.19-.52,2.9-1.55.71-1.03,1.06-2.15,1.06-3.35Z"/>
    <path class="cls-1" d="m212.85,103.34c0,1.87-.63,3.5-1.89,4.88-1.26,1.38-3.23,2.07-5.92,2.07h-12.31v-4.1h2.52v-15.19h-2.52v-4.1h12.17c2.14,0,3.86.5,5.17,1.49,1.31,1,1.96,2.32,1.96,3.98,0,1.22-.37,2.29-1.12,3.2-.74.91-1.79,1.48-3.13,1.69v.14c1.68.24,2.95.9,3.8,1.98.85,1.08,1.28,2.4,1.28,3.96Zm-6.01-9.72c0-1.06-.32-1.76-.95-2.11-.64-.35-1.39-.52-2.25-.52h-3.56v5.47h3.2c1.37,0,2.3-.28,2.81-.83.5-.55.76-1.22.76-2.02Zm.83,9.54c0-1.97-1.19-2.95-3.56-2.95h-4.03v5.98h3.71c2.59,0,3.89-1.01,3.89-3.02Z"/>
    <path class="cls-1" d="m231.82,102.18c0,2.57-.84,4.62-2.52,6.16-1.68,1.54-3.82,2.3-6.41,2.3s-4.53-.73-6.1-2.18c-1.57-1.45-2.36-3.49-2.36-6.1,0-2.38.72-4.42,2.16-6.12,1.44-1.7,3.62-2.56,6.55-2.56s5.11.85,6.53,2.54c1.43,1.69,2.14,3.68,2.14,5.96Zm-4.79-.14c0-1.66-.38-2.87-1.15-3.64-.77-.77-1.7-1.15-2.81-1.15-1.2,0-2.14.43-2.83,1.28-.68.85-1.03,2.05-1.03,3.58,0,1.39.32,2.57.95,3.53s1.59,1.44,2.86,1.44c1.2,0,2.17-.45,2.9-1.35.73-.9,1.1-2.13,1.1-3.69Z"/>
    <path class="cls-1" d="m253.46,110.28h-8.96v-3.49h2.16v-5.65c0-1.39-.23-2.39-.7-2.99s-1.16-.9-2.07-.9c-1.1,0-1.96.34-2.56,1.03-.6.68-.91,1.58-.94,2.68v5.83h2.16v3.49h-8.96v-3.49h2.16v-9.22h-2.34v-3.53h6.98v2.48c1.08-1.87,2.82-2.81,5.22-2.81,1.54,0,2.87.46,4,1.37,1.13.91,1.69,2.33,1.69,4.25v7.45h2.16v3.49Z"/>
    <path class="cls-1" d="m273.91,110.28h-6.8v-3.02c-.46.94-1.13,1.73-2.02,2.39-.89.66-2.06.99-3.53.99-2.14,0-3.82-.73-5.04-2.2s-1.84-3.46-1.84-5.98.6-4.49,1.8-6.19,3.01-2.56,5.44-2.56c1.32,0,2.4.26,3.24.79.84.53,1.49,1.2,1.94,2.02v-7.49h-3.24v-3.53h7.88v21.28h2.16v3.49Zm-6.8-8.21v-.4c0-1.34-.35-2.39-1.06-3.15-.71-.76-1.59-1.13-2.65-1.13s-1.94.38-2.72,1.15c-.78.77-1.17,1.98-1.17,3.64,0,1.56.36,2.75,1.08,3.56.72.82,1.57,1.22,2.56,1.22,1.22,0,2.19-.52,2.9-1.55.71-1.03,1.06-2.15,1.06-3.35Z"/>
    <path class="cls-1" d="m290.07,105.32c0,1.8-.71,3.14-2.14,4.01-1.43.88-3.28,1.31-5.56,1.31-1.18,0-2.36-.13-3.55-.38-1.19-.25-2.32-.65-3.4-1.21l.65-4.54,3.6.4v2.02c.43.14.89.23,1.37.27.48.04.84.05,1.08.05.89,0,1.66-.14,2.3-.43.65-.29.97-.72.97-1.3,0-.7-.49-1.15-1.48-1.37s-2.12-.43-3.42-.65c-1.3-.22-2.44-.66-3.42-1.33-.98-.67-1.48-1.81-1.48-3.42,0-1.99.77-3.33,2.32-4.01,1.55-.68,3.15-1.03,4.81-1.03,2.16,0,4.19.49,6.08,1.48l.4,4.14-3.6.4-.29-2.27c-.79-.26-1.64-.4-2.56-.4-.6,0-1.11.13-1.53.38-.42.25-.63.64-.63,1.17,0,.7.47,1.16,1.42,1.39.95.23,2.05.45,3.31.67s2.36.65,3.31,1.31c.95.66,1.42,1.77,1.42,3.33Z"/>
  </g>
</svg>