<?xml version="1.0" encoding="UTF-8"?>
<svg id="Layer_1" data-name="Layer 1" xmlns="http://www.w3.org/2000/svg" viewBox="0 0 170 170">
  <defs>
    <style>
      .cls-1 {
        fill: #38220f;
        stroke-width: 0px;
      }
    </style>
  </defs>
  <g>
    <path class="cls-1" d="m144.44,39.72c-2.84-.04-17.92,35.54-24.64,41.96-2.88,2.75-15.36,11.02-27.99,20.3,9.34-1.68,18.82,11.03,10.48,20.04-5.11,5.53-11.93,8.42-19.28,9.5-3.82.56-7.73.9-11.59.83-1.93-.04-5.3.13-6.96-.63-.65-.11-1.3-.22-1.96-.33-.15.15-.32.28-.47.41.06.76.34,1.43.88,2,24.04,23.29,59.13-.6,73.76-16.57,14.63-15.98,34.19-73.17,7.76-77.5Z"/>
    <path class="cls-1" d="m139.36,35.99c-26.68-28.86-65.22,7.15-79.65,25.84,5.43,4.7,10.11,11.98,11.21,19.41,1.66-1.05,3.71-1.68,6.17-1.68,5.34,0,8.78,2.94,10.33,6.73,18.81-13.34,58.84-39.12,51.93-50.3Z"/>
  </g>
  <g>
    <path class="cls-1" d="m28.39,110.61c26.18,27.11,60.33,44.8,66.35,27.08,1.23-3.24-18.52-26.24-22.11-31.76-3.59-5.51-18.7-44.4-25.12-50.7-2.61-2.56-10.8-11.55-20.33-11-13.94.81-24.96,39.26,1.22,66.37Z"/>
    <path class="cls-1" d="m35.33,36.64c-.63,3.6,12.1,10.04,23.79,27.51,21.04,27.1,29.8,69.03,44.35,70.9,13.14-5.83,31.5-34.68,5.41-71.63C82.78,26.48,43.46,18.08,35.33,36.64Z"/>
  </g>
</svg>